<?xml version="1.0" encoding="UTF-8" standalone="no"?>

<svg
   xmlns:dc="http://purl.org/dc/elements/1.1/"
   xmlns:cc="http://creativecommons.org/ns#"
   xmlns:rdf="http://www.w3.org/1999/02/22-rdf-syntax-ns#"
   xmlns:svg="http://www.w3.org/2000/svg"
   xmlns="http://www.w3.org/2000/svg"
   id="svg4025"
   version="1.1"
   width="715.59717"
   height="145.17674"
   xml:space="preserve"><g
     id="g4035"
     transform="matrix(1.25,0,0,-1.25,-0.93316256,156.86281)"><g
       id="g4037"
       transform="scale(0.1,0.1)"><path
         d="m 223.621,1244.61 5292.459,0 c 113.7,0 205.87,-92.17 205.87,-205.86 l 0,-729.109 c 0,-113.696 -92.17,-205.86 -205.87,-205.86 l -5292.459,0 c -113.695,0 -205.8632,92.164 -205.8632,205.86 l 0,729.109 c 0,113.69 92.1682,205.86 205.8632,205.86"
         style="fill:#e45e3b;fill-opacity:1;fill-rule:nonzero;stroke:none"
         id="path4039" /><path
         d="m 223.621,1244.61 5292.459,0 c 113.7,0 205.87,-92.17 205.87,-205.86 l 0,-729.109 c 0,-113.696 -92.17,-205.86 -205.87,-205.86 l -5292.459,0 c -113.695,0 -205.8632,92.164 -205.8632,205.86 l 0,729.109 c 0,113.69 92.1682,205.86 205.8632,205.86 z"
         style="fill:none;stroke:#231f20;stroke-width:20.58499908;stroke-linecap:butt;stroke-linejoin:miter;stroke-miterlimit:3.8636899;stroke-opacity:1;stroke-dasharray:none"
         id="path4041" /><path
         d="m 2533.52,256.535 -1075.5,0 84.9,233.25 861.36,0 46.52,127.824 303.49,0 C 2733.09,465.156 2650.01,334.555 2533.52,256.535"
         style="fill:#ffffff;fill-opacity:1;fill-rule:nonzero;stroke:none"
         id="path4043" /><path
         d="m 2533.52,256.535 -1075.5,0 84.9,233.25 861.36,0 46.52,127.824 303.49,0 C 2733.09,465.156 2650.01,334.555 2533.52,256.535 z"
         style="fill:none;stroke:#231f20;stroke-width:34.30899811;stroke-linecap:butt;stroke-linejoin:miter;stroke-miterlimit:3.8636899;stroke-opacity:1;stroke-dasharray:none"
         id="path4045" /><path
         d="m 4050.01,727.609 -347.76,0.235 -75.14,0 -474.03,-0.235 c -116.49,78.028 -199.58,208.625 -220.77,361.081 l 303.48,0 46.53,-127.827 345.14,0.235 74.43,0 218.89,-0.235 46.52,127.827 303.49,0 C 4249.59,936.234 4166.51,805.637 4050.01,727.609"
         style="fill:#ffffff;fill-opacity:1;fill-rule:nonzero;stroke:none"
         id="path4047" /><path
         d="m 4050.01,727.609 -347.76,0.235 -75.14,0 -474.03,-0.235 c -116.49,78.028 -199.58,208.625 -220.77,361.081 l 303.48,0 46.53,-127.827 345.14,0.235 74.43,0 218.89,-0.235 46.52,127.827 303.49,0 C 4249.59,936.234 4166.51,805.637 4050.01,727.609 z"
         style="fill:none;stroke:#231f20;stroke-width:34.30899811;stroke-linecap:butt;stroke-linejoin:miter;stroke-miterlimit:3.8636899;stroke-opacity:1;stroke-dasharray:none"
         id="path4049" /><path
         d="m 1229.7,1089.38 -1075.493,0 84.898,-233.247 861.355,0 46.53,-127.828 303.48,0 C 1429.28,880.758 1346.2,1011.36 1229.7,1089.38"
         style="fill:#ffffff;fill-opacity:1;fill-rule:nonzero;stroke:none"
         id="path4051" /><path
         d="m 1229.7,1089.38 -1075.493,0 84.898,-233.247 861.355,0 46.53,-127.828 303.48,0 C 1429.28,880.758 1346.2,1011.36 1229.7,1089.38 z"
         style="fill:none;stroke:#231f20;stroke-width:34.30899811;stroke-linecap:butt;stroke-linejoin:miter;stroke-miterlimit:3.8636899;stroke-opacity:1;stroke-dasharray:none"
         id="path4053" /><path
         d="m 4492.29,1089.38 1075.49,0 -84.9,-233.251 -861.36,0 -46.52,-127.828 -303.48,0 c 21.19,152.453 104.27,283.059 220.77,361.079"
         style="fill:#ffffff;fill-opacity:1;fill-rule:nonzero;stroke:none"
         id="path4055" /><path
         d="m 4492.29,1089.38 1075.49,0 -84.9,-233.251 -861.36,0 -46.52,-127.828 -303.48,0 c 21.19,152.453 104.27,283.059 220.77,361.079 z"
         style="fill:none;stroke:#231f20;stroke-width:34.30899811;stroke-linecap:butt;stroke-linejoin:miter;stroke-miterlimit:3.8636899;stroke-opacity:1;stroke-dasharray:none"
         id="path4057" /><path
         d="m 4483.71,256.535 1075.49,0 -84.89,233.25 -861.36,0 -46.53,127.824 -303.48,0 c 21.19,-152.453 104.27,-283.054 220.77,-361.074"
         style="fill:#ffffff;fill-opacity:1;fill-rule:nonzero;stroke:none"
         id="path4059" /><path
         d="m 4483.71,256.535 1075.49,0 -84.89,233.25 -861.36,0 -46.53,127.824 -303.48,0 c 21.19,-152.453 104.27,-283.054 220.77,-361.074 z"
         style="fill:none;stroke:#231f20;stroke-width:34.30899811;stroke-linecap:butt;stroke-linejoin:miter;stroke-miterlimit:3.8636899;stroke-opacity:1;stroke-dasharray:none"
         id="path4061" /><path
         d="m 1764.57,1089.38 1075.49,0 -84.89,-233.247 -861.36,0 -46.53,-127.828 -303.48,0 c 21.19,152.453 104.28,283.055 220.77,361.075"
         style="fill:#ffffff;fill-opacity:1;fill-rule:nonzero;stroke:none"
         id="path4063" /><path
         d="m 1764.57,1089.38 1075.49,0 -84.89,-233.247 -861.36,0 -46.53,-127.828 -303.48,0 c 21.19,152.453 104.28,283.055 220.77,361.075 z"
         style="fill:none;stroke:#231f20;stroke-width:34.30899811;stroke-linecap:butt;stroke-linejoin:miter;stroke-miterlimit:3.8636899;stroke-opacity:1;stroke-dasharray:none"
         id="path4065" /><path
         d="m 3531.01,615.176 151.19,0 c 56.85,0 102.93,-46.082 102.93,-102.93 l 0,-151.191 c 0,-56.848 -46.08,-102.93 -102.93,-102.93 l -151.19,0 c -56.85,0 -102.94,46.082 -102.94,102.93 l 0,151.191 c 0,56.848 46.09,102.93 102.94,102.93"
         style="fill:#ffffff;fill-opacity:1;fill-rule:nonzero;stroke:none"
         id="path4067" /><path
         d="m 3531.01,615.176 151.19,0 c 56.85,0 102.93,-46.082 102.93,-102.93 l 0,-151.191 c 0,-56.848 -46.08,-102.93 -102.93,-102.93 l -151.19,0 c -56.85,0 -102.94,46.082 -102.94,102.93 l 0,151.191 c 0,56.848 46.09,102.93 102.94,102.93 z"
         style="fill:none;stroke:#231f20;stroke-width:34.30899811;stroke-linecap:butt;stroke-linejoin:miter;stroke-miterlimit:3.8636899;stroke-opacity:1;stroke-dasharray:none"
         id="path4069" /><path
         d="m 345.469,617.238 151.191,0 c 56.848,0 102.934,-46.082 102.934,-102.929 l 0,-151.192 c 0,-56.847 -46.086,-102.933 -102.934,-102.933 l -151.191,0 c -56.848,0 -102.934,46.086 -102.934,102.933 l 0,151.192 c 0,56.847 46.086,102.929 102.934,102.929"
         style="fill:#ffffff;fill-opacity:1;fill-rule:nonzero;stroke:none"
         id="path4071" /><path
         d="m 345.469,617.238 151.191,0 c 56.848,0 102.934,-46.082 102.934,-102.929 l 0,-151.192 c 0,-56.847 -46.086,-102.933 -102.934,-102.933 l -151.191,0 c -56.848,0 -102.934,46.086 -102.934,102.933 l 0,151.192 c 0,56.847 46.086,102.929 102.934,102.929 z"
         style="fill:none;stroke:#231f20;stroke-width:34.30899811;stroke-linecap:butt;stroke-linejoin:miter;stroke-miterlimit:3.8636899;stroke-opacity:1;stroke-dasharray:none"
         id="path4073" /></g></g></svg>
